<?xml version="1.0" encoding="UTF-8" standalone="no"?>
<!DOCTYPE svg PUBLIC "-//W3C//DTD SVG 1.1//EN"
 "http://www.w3.org/Graphics/SVG/1.1/DTD/svg11.dtd">
<!-- Generated by graphviz version 2.40.1 (20161225.0304)
 -->
<!-- Title: dependencies Pages: 1 -->
<svg width="2717pt" height="211pt"
 viewBox="0.00 0.00 2717.00 211.00" xmlns="http://www.w3.org/2000/svg" xmlns:xlink="http://www.w3.org/1999/xlink">
<g id="graph0" class="graph" transform="scale(1 1) rotate(0) translate(4 207)">
<title>dependencies</title>
<polygon fill="#ffffff" stroke="transparent" points="-4,4 -4,-207 2713,-207 2713,4 -4,4"/>
<text text-anchor="start" x="1333.5091" y="-42.4" font-family="sans-serif" font-weight="bold" font-size="14.00" fill="#000000">Legend</text>
<polygon fill="#ffffb3" stroke="transparent" points="1120.5,-10 1120.5,-30 1140.5,-30 1140.5,-10 1120.5,-10"/>
<text text-anchor="start" x="1144.129" y="-15.4" font-family="sans-serif" font-size="14.00" fill="#000000"> &#160;Declarations</text>
<polygon fill="#8dd3c7" stroke="transparent" points="1233.5,-10 1233.5,-30 1253.5,-30 1253.5,-10 1233.5,-10"/>
<text text-anchor="start" x="1257.2251" y="-15.4" font-family="sans-serif" font-size="14.00" fill="#000000"> &#160;Module</text>
<polygon fill="#80b1d3" stroke="transparent" points="1319.5,-10 1319.5,-30 1339.5,-30 1339.5,-10 1319.5,-10"/>
<text text-anchor="start" x="1343.2812" y="-15.4" font-family="sans-serif" font-size="14.00" fill="#000000"> &#160;Bootstrap</text>
<polygon fill="#fdb462" stroke="transparent" points="1416.5,-10 1416.5,-30 1436.5,-30 1436.5,-10 1416.5,-10"/>
<text text-anchor="start" x="1440.1732" y="-15.4" font-family="sans-serif" font-size="14.00" fill="#000000"> &#160;Providers</text>
<polygon fill="#fb8072" stroke="transparent" points="1512.5,-10 1512.5,-30 1532.5,-30 1532.5,-10 1512.5,-10"/>
<text text-anchor="start" x="1536.2258" y="-15.4" font-family="sans-serif" font-size="14.00" fill="#000000"> &#160;Exports</text>
<g id="clust1" class="cluster">
<title>cluster_AppModule</title>
<polygon fill="none" stroke="#000000" stroke-dasharray="1,5" points="8,-70 8,-195 2701,-195 2701,-70 8,-70"/>
</g>
<g id="clust3" class="cluster">
<title>cluster_AppModule_imports</title>
<polygon fill="none" stroke="#000000" points="16,-78 16,-130 2693,-130 2693,-78 16,-78"/>
</g>
<!-- AddonsModule -->
<g id="node1" class="node">
<title>AddonsModule</title>
<polygon fill="#8dd3c7" stroke="#000000" points="2684.601,-122 2681.601,-126 2660.601,-126 2657.601,-122 2581.399,-122 2581.399,-86 2684.601,-86 2684.601,-122"/>
<text text-anchor="middle" x="2633" y="-99.8" font-family="Times,serif" font-size="14.00" fill="#000000">AddonsModule</text>
</g>
<!-- AppModule -->
<g id="node22" class="node">
<title>AppModule</title>
<polygon fill="#8dd3c7" stroke="#000000" points="1400.6571,-187 1397.6571,-191 1376.6571,-191 1373.6571,-187 1317.3429,-187 1317.3429,-151 1400.6571,-151 1400.6571,-187"/>
<text text-anchor="middle" x="1359" y="-164.8" font-family="Times,serif" font-size="14.00" fill="#000000">AppModule</text>
</g>
<!-- AddonsModule&#45;&gt;AppModule -->
<g id="edge1" class="edge">
<title>AddonsModule&#45;&gt;AppModule</title>
<path fill="none" stroke="#000000" d="M2633,-122.1532C2633,-145.7566 2633,-184 2633,-184 2633,-184 1410.6639,-184 1410.6639,-184"/>
<polygon fill="#000000" stroke="#000000" points="1410.664,-180.5001 1400.6639,-184 1410.6639,-187.5001 1410.664,-180.5001"/>
</g>
<!-- AdressesModule -->
<g id="node2" class="node">
<title>AdressesModule</title>
<polygon fill="#8dd3c7" stroke="#000000" points="2563.08,-122 2560.08,-126 2539.08,-126 2536.08,-122 2452.92,-122 2452.92,-86 2563.08,-86 2563.08,-122"/>
<text text-anchor="middle" x="2508" y="-99.8" font-family="Times,serif" font-size="14.00" fill="#000000">AdressesModule</text>
</g>
<!-- AdressesModule&#45;&gt;AppModule -->
<g id="edge2" class="edge">
<title>AdressesModule&#45;&gt;AppModule</title>
<path fill="none" stroke="#000000" d="M2508,-122.2479C2508,-145.0179 2508,-181 2508,-181 2508,-181 1410.9136,-181 1410.9136,-181"/>
<polygon fill="#000000" stroke="#000000" points="1410.9137,-177.5001 1400.9136,-181 1410.9136,-184.5001 1410.9137,-177.5001"/>
</g>
<!-- CatalogsModule -->
<g id="node3" class="node">
<title>CatalogsModule</title>
<polygon fill="#8dd3c7" stroke="#000000" points="2435.0424,-122 2432.0424,-126 2411.0424,-126 2408.0424,-122 2326.9576,-122 2326.9576,-86 2435.0424,-86 2435.0424,-122"/>
<text text-anchor="middle" x="2381" y="-99.8" font-family="Times,serif" font-size="14.00" fill="#000000">CatalogsModule</text>
</g>
<!-- CatalogsModule&#45;&gt;AppModule -->
<g id="edge3" class="edge">
<title>CatalogsModule&#45;&gt;AppModule</title>
<path fill="none" stroke="#000000" d="M2381,-122.2921C2381,-144.2057 2381,-178 2381,-178 2381,-178 1410.9689,-178 1410.9689,-178"/>
<polygon fill="#000000" stroke="#000000" points="1410.969,-174.5001 1400.9689,-178 1410.9689,-181.5001 1410.969,-174.5001"/>
</g>
<!-- CitiesModule -->
<g id="node4" class="node">
<title>CitiesModule</title>
<polygon fill="#8dd3c7" stroke="#000000" points="2309.2177,-122 2306.2177,-126 2285.2177,-126 2282.2177,-122 2216.7823,-122 2216.7823,-86 2309.2177,-86 2309.2177,-122"/>
<text text-anchor="middle" x="2263" y="-99.8" font-family="Times,serif" font-size="14.00" fill="#000000">CitiesModule</text>
</g>
<!-- CitiesModule&#45;&gt;AppModule -->
<g id="edge4" class="edge">
<title>CitiesModule&#45;&gt;AppModule</title>
<path fill="none" stroke="#000000" d="M2263,-122.0267C2263,-142.7672 2263,-174 2263,-174 2263,-174 1410.7888,-174 1410.7888,-174"/>
<polygon fill="#000000" stroke="#000000" points="1410.7888,-170.5001 1400.7888,-174 1410.7887,-177.5001 1410.7888,-170.5001"/>
</g>
<!-- CombosModule -->
<g id="node5" class="node">
<title>CombosModule</title>
<polygon fill="#8dd3c7" stroke="#000000" points="2199.2218,-122 2196.2218,-126 2175.2218,-126 2172.2218,-122 2092.7782,-122 2092.7782,-86 2199.2218,-86 2199.2218,-122"/>
<text text-anchor="middle" x="2146" y="-99.8" font-family="Times,serif" font-size="14.00" fill="#000000">CombosModule</text>
</g>
<!-- CombosModule&#45;&gt;AppModule -->
<g id="edge5" class="edge">
<title>CombosModule&#45;&gt;AppModule</title>
<path fill="none" stroke="#000000" d="M2146,-122.308C2146,-142.1455 2146,-171 2146,-171 2146,-171 1410.7569,-171 1410.7569,-171"/>
<polygon fill="#000000" stroke="#000000" points="1410.7569,-167.5001 1400.7569,-171 1410.7568,-174.5001 1410.7569,-167.5001"/>
</g>
<!-- ComplaintsModule -->
<g id="node6" class="node">
<title>ComplaintsModule</title>
<polygon fill="#8dd3c7" stroke="#000000" points="2075.108,-122 2072.108,-126 2051.108,-126 2048.108,-122 1950.892,-122 1950.892,-86 2075.108,-86 2075.108,-122"/>
<text text-anchor="middle" x="2013" y="-99.8" font-family="Times,serif" font-size="14.00" fill="#000000">ComplaintsModule</text>
</g>
<!-- ComplaintsModule&#45;&gt;AppModule -->
<g id="edge6" class="edge">
<title>ComplaintsModule&#45;&gt;AppModule</title>
<path fill="none" stroke="#000000" d="M2013,-122.1686C2013,-141.0898 2013,-168 2013,-168 2013,-168 1410.9055,-168 1410.9055,-168"/>
<polygon fill="#000000" stroke="#000000" points="1410.9056,-164.5001 1400.9055,-168 1410.9055,-171.5001 1410.9056,-164.5001"/>
</g>
<!-- CouponsModule -->
<g id="node7" class="node">
<title>CouponsModule</title>
<polygon fill="#8dd3c7" stroke="#000000" points="1932.8315,-122 1929.8315,-126 1908.8315,-126 1905.8315,-122 1823.1685,-122 1823.1685,-86 1932.8315,-86 1932.8315,-122"/>
<text text-anchor="middle" x="1878" y="-99.8" font-family="Times,serif" font-size="14.00" fill="#000000">CouponsModule</text>
</g>
<!-- CouponsModule&#45;&gt;AppModule -->
<g id="edge7" class="edge">
<title>CouponsModule&#45;&gt;AppModule</title>
<path fill="none" stroke="#000000" d="M1878,-122.302C1878,-140.2699 1878,-165 1878,-165 1878,-165 1411.0323,-165 1411.0323,-165"/>
<polygon fill="#000000" stroke="#000000" points="1411.0324,-161.5001 1401.0323,-165 1411.0323,-168.5001 1411.0324,-161.5001"/>
</g>
<!-- FavoritesModule -->
<g id="node8" class="node">
<title>FavoritesModule</title>
<polygon fill="#8dd3c7" stroke="#000000" points="1805.6486,-122 1802.6486,-126 1781.6486,-126 1778.6486,-122 1694.3514,-122 1694.3514,-86 1805.6486,-86 1805.6486,-122"/>
<text text-anchor="middle" x="1750" y="-99.8" font-family="Times,serif" font-size="14.00" fill="#000000">FavoritesModule</text>
</g>
<!-- FavoritesModule&#45;&gt;AppModule -->
<g id="edge8" class="edge">
<title>FavoritesModule&#45;&gt;AppModule</title>
<path fill="none" stroke="#000000" d="M1750,-122.0352C1750,-138.7344 1750,-161 1750,-161 1750,-161 1410.8438,-161 1410.8438,-161"/>
<polygon fill="#000000" stroke="#000000" points="1410.8439,-157.5001 1400.8438,-161 1410.8438,-164.5001 1410.8439,-157.5001"/>
</g>
<!-- ImagesModule -->
<g id="node9" class="node">
<title>ImagesModule</title>
<polygon fill="#8dd3c7" stroke="#000000" points="1675.9748,-122 1672.9748,-126 1651.9748,-126 1648.9748,-122 1576.0252,-122 1576.0252,-86 1675.9748,-86 1675.9748,-122"/>
<text text-anchor="middle" x="1626" y="-99.8" font-family="Times,serif" font-size="14.00" fill="#000000">ImagesModule</text>
</g>
<!-- ImagesModule&#45;&gt;AppModule -->
<g id="edge9" class="edge">
<title>ImagesModule&#45;&gt;AppModule</title>
<path fill="none" stroke="#000000" d="M1626,-122.2819C1626,-137.9478 1626,-158 1626,-158 1626,-158 1410.7188,-158 1410.7188,-158"/>
<polygon fill="#000000" stroke="#000000" points="1410.7188,-154.5001 1400.7188,-158 1410.7187,-161.5001 1410.7188,-154.5001"/>
</g>
<!-- NotificationsModule -->
<g id="node10" class="node">
<title>NotificationsModule</title>
<polygon fill="#8dd3c7" stroke="#000000" points="1558.1443,-122 1555.1443,-126 1534.1443,-126 1531.1443,-122 1425.8557,-122 1425.8557,-86 1558.1443,-86 1558.1443,-122"/>
<text text-anchor="middle" x="1492" y="-99.8" font-family="Times,serif" font-size="14.00" fill="#000000">NotificationsModule</text>
</g>
<!-- NotificationsModule&#45;&gt;AppModule -->
<g id="edge10" class="edge">
<title>NotificationsModule&#45;&gt;AppModule</title>
<path fill="none" stroke="#000000" d="M1492,-122.1243C1492,-136.7832 1492,-155 1492,-155 1492,-155 1410.7171,-155 1410.7171,-155"/>
<polygon fill="#000000" stroke="#000000" points="1410.7172,-151.5001 1400.7171,-155 1410.7171,-158.5001 1410.7172,-151.5001"/>
</g>
<!-- OrdersModule -->
<g id="node11" class="node">
<title>OrdersModule</title>
<polygon fill="#8dd3c7" stroke="#000000" points="1407.6375,-122 1404.6375,-126 1383.6375,-126 1380.6375,-122 1310.3625,-122 1310.3625,-86 1407.6375,-86 1407.6375,-122"/>
<text text-anchor="middle" x="1359" y="-99.8" font-family="Times,serif" font-size="14.00" fill="#000000">OrdersModule</text>
</g>
<!-- OrdersModule&#45;&gt;AppModule -->
<g id="edge11" class="edge">
<title>OrdersModule&#45;&gt;AppModule</title>
<path fill="none" stroke="#000000" d="M1359,-122.1061C1359,-122.1061 1359,-140.991 1359,-140.991"/>
<polygon fill="#000000" stroke="#000000" points="1355.5001,-140.9909 1359,-150.991 1362.5001,-140.991 1355.5001,-140.9909"/>
</g>
<!-- ProductsModule -->
<g id="node12" class="node">
<title>ProductsModule</title>
<polygon fill="#8dd3c7" stroke="#000000" points="1292.0438,-122 1289.0438,-126 1268.0438,-126 1265.0438,-122 1183.9562,-122 1183.9562,-86 1292.0438,-86 1292.0438,-122"/>
<text text-anchor="middle" x="1238" y="-99.8" font-family="Times,serif" font-size="14.00" fill="#000000">ProductsModule</text>
</g>
<!-- ProductsModule&#45;&gt;AppModule -->
<g id="edge12" class="edge">
<title>ProductsModule&#45;&gt;AppModule</title>
<path fill="none" stroke="#000000" d="M1238,-122.1243C1238,-136.7832 1238,-155 1238,-155 1238,-155 1307.0197,-155 1307.0197,-155"/>
<polygon fill="#000000" stroke="#000000" points="1307.0197,-158.5001 1317.0197,-155 1307.0196,-151.5001 1307.0197,-158.5001"/>
</g>
<!-- PushtokensModule -->
<g id="node13" class="node">
<title>PushtokensModule</title>
<polygon fill="#8dd3c7" stroke="#000000" points="1165.8272,-122 1162.8272,-126 1141.8272,-126 1138.8272,-122 1042.1728,-122 1042.1728,-86 1165.8272,-86 1165.8272,-122"/>
<text text-anchor="middle" x="1104" y="-99.8" font-family="Times,serif" font-size="14.00" fill="#000000">PushtokensModule</text>
</g>
<!-- PushtokensModule&#45;&gt;AppModule -->
<g id="edge13" class="edge">
<title>PushtokensModule&#45;&gt;AppModule</title>
<path fill="none" stroke="#000000" d="M1104,-122.2819C1104,-137.9478 1104,-158 1104,-158 1104,-158 1307.1775,-158 1307.1775,-158"/>
<polygon fill="#000000" stroke="#000000" points="1307.1775,-161.5001 1317.1775,-158 1307.1774,-154.5001 1307.1775,-161.5001"/>
</g>
<!-- RatingsModule -->
<g id="node14" class="node">
<title>RatingsModule</title>
<polygon fill="#8dd3c7" stroke="#000000" points="1024.3273,-122 1021.3273,-126 1000.3273,-126 997.3273,-122 921.6727,-122 921.6727,-86 1024.3273,-86 1024.3273,-122"/>
<text text-anchor="middle" x="973" y="-99.8" font-family="Times,serif" font-size="14.00" fill="#000000">RatingsModule</text>
</g>
<!-- RatingsModule&#45;&gt;AppModule -->
<g id="edge14" class="edge">
<title>RatingsModule&#45;&gt;AppModule</title>
<path fill="none" stroke="#000000" d="M973,-122.0352C973,-138.7344 973,-161 973,-161 973,-161 1307.3245,-161 1307.3245,-161"/>
<polygon fill="#000000" stroke="#000000" points="1307.3245,-164.5001 1317.3245,-161 1307.3245,-157.5001 1307.3245,-164.5001"/>
</g>
<!-- SectionsModule -->
<g id="node15" class="node">
<title>SectionsModule</title>
<polygon fill="#8dd3c7" stroke="#000000" points="903.4874,-122 900.4874,-126 879.4874,-126 876.4874,-122 796.5126,-122 796.5126,-86 903.4874,-86 903.4874,-122"/>
<text text-anchor="middle" x="850" y="-99.8" font-family="Times,serif" font-size="14.00" fill="#000000">SectionsModule</text>
</g>
<!-- SectionsModule&#45;&gt;AppModule -->
<g id="edge15" class="edge">
<title>SectionsModule&#45;&gt;AppModule</title>
<path fill="none" stroke="#000000" d="M850,-122.302C850,-140.2699 850,-165 850,-165 850,-165 1306.9134,-165 1306.9134,-165"/>
<polygon fill="#000000" stroke="#000000" points="1306.9134,-168.5001 1316.9134,-165 1306.9133,-161.5001 1306.9134,-168.5001"/>
</g>
<!-- SettingsModule -->
<g id="node16" class="node">
<title>SettingsModule</title>
<polygon fill="#8dd3c7" stroke="#000000" points="778.1639,-122 775.1639,-126 754.1639,-126 751.1639,-122 673.8361,-122 673.8361,-86 778.1639,-86 778.1639,-122"/>
<text text-anchor="middle" x="726" y="-99.8" font-family="Times,serif" font-size="14.00" fill="#000000">SettingsModule</text>
</g>
<!-- SettingsModule&#45;&gt;AppModule -->
<g id="edge16" class="edge">
<title>SettingsModule&#45;&gt;AppModule</title>
<path fill="none" stroke="#000000" d="M726,-122.1686C726,-141.0898 726,-168 726,-168 726,-168 1306.9769,-168 1306.9769,-168"/>
<polygon fill="#000000" stroke="#000000" points="1306.9769,-171.5001 1316.9769,-168 1306.9768,-164.5001 1306.9769,-171.5001"/>
</g>
<!-- SpecialtiesModule -->
<g id="node17" class="node">
<title>SpecialtiesModule</title>
<polygon fill="#8dd3c7" stroke="#000000" points="656.198,-122 653.198,-126 632.198,-126 629.198,-122 535.802,-122 535.802,-86 656.198,-86 656.198,-122"/>
<text text-anchor="middle" x="596" y="-99.8" font-family="Times,serif" font-size="14.00" fill="#000000">SpecialtiesModule</text>
</g>
<!-- SpecialtiesModule&#45;&gt;AppModule -->
<g id="edge17" class="edge">
<title>SpecialtiesModule&#45;&gt;AppModule</title>
<path fill="none" stroke="#000000" d="M596,-122.308C596,-142.1455 596,-171 596,-171 596,-171 1307.1639,-171 1307.1639,-171"/>
<polygon fill="#000000" stroke="#000000" points="1307.1639,-174.5001 1317.1639,-171 1307.1638,-167.5001 1307.1639,-174.5001"/>
</g>
<!-- StoresModule -->
<g id="node18" class="node">
<title>StoresModule</title>
<polygon fill="#8dd3c7" stroke="#000000" points="518.0439,-122 515.0439,-126 494.0439,-126 491.0439,-122 423.9561,-122 423.9561,-86 518.0439,-86 518.0439,-122"/>
<text text-anchor="middle" x="471" y="-99.8" font-family="Times,serif" font-size="14.00" fill="#000000">StoresModule</text>
</g>
<!-- StoresModule&#45;&gt;AppModule -->
<g id="edge18" class="edge">
<title>StoresModule&#45;&gt;AppModule</title>
<path fill="none" stroke="#000000" d="M471,-122.0267C471,-142.7672 471,-174 471,-174 471,-174 1307.0646,-174 1307.0646,-174"/>
<polygon fill="#000000" stroke="#000000" points="1307.0646,-177.5001 1317.0646,-174 1307.0646,-170.5001 1307.0646,-177.5001"/>
</g>
<!-- StoretypesModule -->
<g id="node19" class="node">
<title>StoretypesModule</title>
<polygon fill="#8dd3c7" stroke="#000000" points="405.1485,-122 402.1485,-126 381.1485,-126 378.1485,-122 286.8515,-122 286.8515,-86 405.1485,-86 405.1485,-122"/>
<text text-anchor="middle" x="346" y="-99.8" font-family="Times,serif" font-size="14.00" fill="#000000">StoretypesModule</text>
</g>
<!-- StoretypesModule&#45;&gt;AppModule -->
<g id="edge19" class="edge">
<title>StoretypesModule&#45;&gt;AppModule</title>
<path fill="none" stroke="#000000" d="M346,-122.2921C346,-144.2057 346,-178 346,-178 346,-178 1307.082,-178 1307.082,-178"/>
<polygon fill="#000000" stroke="#000000" points="1307.0821,-181.5001 1317.082,-178 1307.082,-174.5001 1307.0821,-181.5001"/>
</g>
<!-- UsedcouponsModule -->
<g id="node20" class="node">
<title>UsedcouponsModule</title>
<polygon fill="#8dd3c7" stroke="#000000" points="268.4748,-122 265.4748,-126 244.4748,-126 241.4748,-122 133.5252,-122 133.5252,-86 268.4748,-86 268.4748,-122"/>
<text text-anchor="middle" x="201" y="-99.8" font-family="Times,serif" font-size="14.00" fill="#000000">UsedcouponsModule</text>
</g>
<!-- UsedcouponsModule&#45;&gt;AppModule -->
<g id="edge20" class="edge">
<title>UsedcouponsModule&#45;&gt;AppModule</title>
<path fill="none" stroke="#000000" d="M201,-122.2479C201,-145.0179 201,-181 201,-181 201,-181 1307.102,-181 1307.102,-181"/>
<polygon fill="#000000" stroke="#000000" points="1307.1021,-184.5001 1317.102,-181 1307.102,-177.5001 1307.1021,-184.5001"/>
</g>
<!-- UsersModule -->
<g id="node21" class="node">
<title>UsersModule</title>
<polygon fill="#8dd3c7" stroke="#000000" points="115.9218,-122 112.9218,-126 91.9218,-126 88.9218,-122 24.0782,-122 24.0782,-86 115.9218,-86 115.9218,-122"/>
<text text-anchor="middle" x="70" y="-99.8" font-family="Times,serif" font-size="14.00" fill="#000000">UsersModule</text>
</g>
<!-- UsersModule&#45;&gt;AppModule -->
<g id="edge21" class="edge">
<title>UsersModule&#45;&gt;AppModule</title>
<path fill="none" stroke="#000000" d="M70,-122.1532C70,-145.7566 70,-184 70,-184 70,-184 1307.2098,-184 1307.2098,-184"/>
<polygon fill="#000000" stroke="#000000" points="1307.2098,-187.5001 1317.2098,-184 1307.2097,-180.5001 1307.2098,-187.5001"/>
</g>
</g>
</svg>
