<?xml version="1.0" encoding="UTF-8" standalone="no"?>
<!DOCTYPE svg PUBLIC "-//W3C//DTD SVG 1.1//EN"
 "http://www.w3.org/Graphics/SVG/1.1/DTD/svg11.dtd">
<!-- Generated by graphviz version 2.40.1 (20161225.0304)
 -->
<!-- Title: dependencies Pages: 1 -->
<svg width="4227pt" height="298pt"
 viewBox="0.00 0.00 4227.00 298.00" xmlns="http://www.w3.org/2000/svg" xmlns:xlink="http://www.w3.org/1999/xlink">
<g id="graph0" class="graph" transform="scale(1 1) rotate(0) translate(4 294)">
<title>dependencies</title>
<polygon fill="#ffffff" stroke="transparent" points="-4,4 -4,-294 4223,-294 4223,4 -4,4"/>
<text text-anchor="start" x="2088.5091" y="-42.4" font-family="sans-serif" font-weight="bold" font-size="14.00" fill="#000000">Legend</text>
<polygon fill="#ffffb3" stroke="transparent" points="1875.5,-10 1875.5,-30 1895.5,-30 1895.5,-10 1875.5,-10"/>
<text text-anchor="start" x="1899.129" y="-15.4" font-family="sans-serif" font-size="14.00" fill="#000000"> &#160;Declarations</text>
<polygon fill="#8dd3c7" stroke="transparent" points="1988.5,-10 1988.5,-30 2008.5,-30 2008.5,-10 1988.5,-10"/>
<text text-anchor="start" x="2012.2251" y="-15.4" font-family="sans-serif" font-size="14.00" fill="#000000"> &#160;Module</text>
<polygon fill="#80b1d3" stroke="transparent" points="2074.5,-10 2074.5,-30 2094.5,-30 2094.5,-10 2074.5,-10"/>
<text text-anchor="start" x="2098.2812" y="-15.4" font-family="sans-serif" font-size="14.00" fill="#000000"> &#160;Bootstrap</text>
<polygon fill="#fdb462" stroke="transparent" points="2171.5,-10 2171.5,-30 2191.5,-30 2191.5,-10 2171.5,-10"/>
<text text-anchor="start" x="2195.1732" y="-15.4" font-family="sans-serif" font-size="14.00" fill="#000000"> &#160;Providers</text>
<polygon fill="#fb8072" stroke="transparent" points="2267.5,-10 2267.5,-30 2287.5,-30 2287.5,-10 2267.5,-10"/>
<text text-anchor="start" x="2291.2258" y="-15.4" font-family="sans-serif" font-size="14.00" fill="#000000"> &#160;Exports</text>
<g id="clust1" class="cluster">
<title>cluster_AddonsModule</title>
<polygon fill="none" stroke="#000000" stroke-dasharray="1,5" points="3849,-70 3849,-206 4021,-206 4021,-70 3849,-70"/>
</g>
<g id="clust6" class="cluster">
<title>cluster_AddonsModule_providers</title>
<polygon fill="none" stroke="#000000" points="3857,-78 3857,-130 4013,-130 4013,-78 3857,-78"/>
</g>
<g id="clust7" class="cluster">
<title>cluster_AdressesModule</title>
<polygon fill="none" stroke="#000000" stroke-dasharray="1,5" points="4029,-70 4029,-282 4211,-282 4211,-70 4029,-70"/>
</g>
<g id="clust10" class="cluster">
<title>cluster_AdressesModule_exports</title>
<polygon fill="none" stroke="#000000" points="4046,-222 4046,-274 4174,-274 4174,-222 4046,-222"/>
</g>
<g id="clust12" class="cluster">
<title>cluster_AdressesModule_providers</title>
<polygon fill="none" stroke="#000000" points="4037,-78 4037,-130 4203,-130 4203,-78 4037,-78"/>
</g>
<g id="clust13" class="cluster">
<title>cluster_AppModule</title>
<polygon fill="none" stroke="#000000" stroke-dasharray="1,5" points="970,-146 970,-274 3414,-274 3414,-146 970,-146"/>
</g>
<g id="clust15" class="cluster">
<title>cluster_AppModule_imports</title>
<polygon fill="none" stroke="#000000" points="978,-154 978,-206 3406,-206 3406,-154 978,-154"/>
</g>
<g id="clust19" class="cluster">
<title>cluster_CatalogsModule</title>
<polygon fill="none" stroke="#000000" stroke-dasharray="1,5" points="3661,-70 3661,-138 3841,-138 3841,-70 3661,-70"/>
</g>
<g id="clust24" class="cluster">
<title>cluster_CatalogsModule_providers</title>
<polygon fill="none" stroke="#000000" points="3669,-78 3669,-130 3833,-130 3833,-78 3669,-78"/>
</g>
<g id="clust25" class="cluster">
<title>cluster_CitiesModule</title>
<polygon fill="none" stroke="#000000" stroke-dasharray="1,5" points="809,-70 809,-138 967,-138 967,-70 809,-70"/>
</g>
<g id="clust30" class="cluster">
<title>cluster_CitiesModule_providers</title>
<polygon fill="none" stroke="#000000" points="817,-78 817,-130 959,-130 959,-78 817,-78"/>
</g>
<g id="clust31" class="cluster">
<title>cluster_CombosModule</title>
<polygon fill="none" stroke="#000000" stroke-dasharray="1,5" points="975,-70 975,-138 1151,-138 1151,-70 975,-70"/>
</g>
<g id="clust36" class="cluster">
<title>cluster_CombosModule_providers</title>
<polygon fill="none" stroke="#000000" points="983,-78 983,-130 1143,-130 1143,-78 983,-78"/>
</g>
<g id="clust37" class="cluster">
<title>cluster_ComplaintsModule</title>
<polygon fill="none" stroke="#000000" stroke-dasharray="1,5" points="1159,-70 1159,-138 1361,-138 1361,-70 1159,-70"/>
</g>
<g id="clust42" class="cluster">
<title>cluster_ComplaintsModule_providers</title>
<polygon fill="none" stroke="#000000" points="1167,-78 1167,-130 1353,-130 1353,-78 1167,-78"/>
</g>
<g id="clust43" class="cluster">
<title>cluster_CouponsModule</title>
<polygon fill="none" stroke="#000000" stroke-dasharray="1,5" points="1369,-70 1369,-138 1549,-138 1549,-70 1369,-70"/>
</g>
<g id="clust48" class="cluster">
<title>cluster_CouponsModule_providers</title>
<polygon fill="none" stroke="#000000" points="1377,-78 1377,-130 1541,-130 1541,-78 1377,-78"/>
</g>
<g id="clust49" class="cluster">
<title>cluster_FavoritesModule</title>
<polygon fill="none" stroke="#000000" stroke-dasharray="1,5" points="1557,-70 1557,-138 1741,-138 1741,-70 1557,-70"/>
</g>
<g id="clust54" class="cluster">
<title>cluster_FavoritesModule_providers</title>
<polygon fill="none" stroke="#000000" points="1565,-78 1565,-130 1733,-130 1733,-78 1565,-78"/>
</g>
<g id="clust55" class="cluster">
<title>cluster_ImagesModule</title>
<polygon fill="none" stroke="#000000" stroke-dasharray="1,5" points="8,-214 8,-282 302,-282 302,-214 8,-214"/>
</g>
<g id="clust58" class="cluster">
<title>cluster_ImagesModule_exports</title>
<polygon fill="none" stroke="#000000" points="176,-222 176,-274 294,-274 294,-222 176,-222"/>
</g>
<g id="clust60" class="cluster">
<title>cluster_ImagesModule_providers</title>
<polygon fill="none" stroke="#000000" points="16,-222 16,-274 168,-274 168,-222 16,-222"/>
</g>
<g id="clust61" class="cluster">
<title>cluster_NotificationsModule</title>
<polygon fill="none" stroke="#000000" stroke-dasharray="1,5" points="310,-214 310,-282 680,-282 680,-214 310,-214"/>
</g>
<g id="clust64" class="cluster">
<title>cluster_NotificationsModule_exports</title>
<polygon fill="none" stroke="#000000" points="522,-222 522,-274 672,-274 672,-222 522,-222"/>
</g>
<g id="clust66" class="cluster">
<title>cluster_NotificationsModule_providers</title>
<polygon fill="none" stroke="#000000" points="318,-222 318,-274 514,-274 514,-222 318,-222"/>
</g>
<g id="clust67" class="cluster">
<title>cluster_OrdersModule</title>
<polygon fill="none" stroke="#000000" stroke-dasharray="1,5" points="1749,-70 1749,-138 1913,-138 1913,-70 1749,-70"/>
</g>
<g id="clust72" class="cluster">
<title>cluster_OrdersModule_providers</title>
<polygon fill="none" stroke="#000000" points="1757,-78 1757,-130 1905,-130 1905,-78 1757,-78"/>
</g>
<g id="clust73" class="cluster">
<title>cluster_ProductsModule</title>
<polygon fill="none" stroke="#000000" stroke-dasharray="1,5" points="1921,-70 1921,-138 2101,-138 2101,-70 1921,-70"/>
</g>
<g id="clust78" class="cluster">
<title>cluster_ProductsModule_providers</title>
<polygon fill="none" stroke="#000000" points="1929,-78 1929,-130 2093,-130 2093,-78 1929,-78"/>
</g>
<g id="clust79" class="cluster">
<title>cluster_PushtokensModule</title>
<polygon fill="none" stroke="#000000" stroke-dasharray="1,5" points="2109,-70 2109,-138 2309,-138 2309,-70 2109,-70"/>
</g>
<g id="clust84" class="cluster">
<title>cluster_PushtokensModule_providers</title>
<polygon fill="none" stroke="#000000" points="2117,-78 2117,-130 2301,-130 2301,-78 2117,-78"/>
</g>
<g id="clust85" class="cluster">
<title>cluster_RatingsModule</title>
<polygon fill="none" stroke="#000000" stroke-dasharray="1,5" points="2317,-70 2317,-138 2487,-138 2487,-70 2317,-70"/>
</g>
<g id="clust90" class="cluster">
<title>cluster_RatingsModule_providers</title>
<polygon fill="none" stroke="#000000" points="2325,-78 2325,-130 2479,-130 2479,-78 2325,-78"/>
</g>
<g id="clust91" class="cluster">
<title>cluster_SectionsModule</title>
<polygon fill="none" stroke="#000000" stroke-dasharray="1,5" points="2495,-70 2495,-138 2673,-138 2673,-70 2495,-70"/>
</g>
<g id="clust96" class="cluster">
<title>cluster_SectionsModule_providers</title>
<polygon fill="none" stroke="#000000" points="2503,-78 2503,-130 2665,-130 2665,-78 2503,-78"/>
</g>
<g id="clust97" class="cluster">
<title>cluster_SettingsModule</title>
<polygon fill="none" stroke="#000000" stroke-dasharray="1,5" points="2681,-70 2681,-138 2855,-138 2855,-70 2681,-70"/>
</g>
<g id="clust102" class="cluster">
<title>cluster_SettingsModule_providers</title>
<polygon fill="none" stroke="#000000" points="2689,-78 2689,-130 2847,-130 2847,-78 2689,-78"/>
</g>
<g id="clust103" class="cluster">
<title>cluster_SpecialtiesModule</title>
<polygon fill="none" stroke="#000000" stroke-dasharray="1,5" points="2863,-70 2863,-138 3059,-138 3059,-70 2863,-70"/>
</g>
<g id="clust108" class="cluster">
<title>cluster_SpecialtiesModule_providers</title>
<polygon fill="none" stroke="#000000" points="2871,-78 2871,-130 3051,-130 3051,-78 2871,-78"/>
</g>
<g id="clust109" class="cluster">
<title>cluster_StoresModule</title>
<polygon fill="none" stroke="#000000" stroke-dasharray="1,5" points="3067,-70 3067,-138 3227,-138 3227,-70 3067,-70"/>
</g>
<g id="clust114" class="cluster">
<title>cluster_StoresModule_providers</title>
<polygon fill="none" stroke="#000000" points="3075,-78 3075,-130 3219,-130 3219,-78 3075,-78"/>
</g>
<g id="clust115" class="cluster">
<title>cluster_StoretypesModule</title>
<polygon fill="none" stroke="#000000" stroke-dasharray="1,5" points="3235,-70 3235,-138 3429,-138 3429,-70 3235,-70"/>
</g>
<g id="clust120" class="cluster">
<title>cluster_StoretypesModule_providers</title>
<polygon fill="none" stroke="#000000" points="3243,-78 3243,-130 3421,-130 3421,-78 3243,-78"/>
</g>
<g id="clust121" class="cluster">
<title>cluster_UsedcouponsModule</title>
<polygon fill="none" stroke="#000000" stroke-dasharray="1,5" points="3437,-70 3437,-138 3653,-138 3653,-70 3437,-70"/>
</g>
<g id="clust126" class="cluster">
<title>cluster_UsedcouponsModule_providers</title>
<polygon fill="none" stroke="#000000" points="3445,-78 3445,-130 3645,-130 3645,-78 3445,-78"/>
</g>
<g id="clust127" class="cluster">
<title>cluster_UsersModule</title>
<polygon fill="none" stroke="#000000" stroke-dasharray="1,5" points="688,-214 688,-282 962,-282 962,-214 688,-214"/>
</g>
<g id="clust130" class="cluster">
<title>cluster_UsersModule_exports</title>
<polygon fill="none" stroke="#000000" points="844,-222 844,-274 954,-274 954,-222 844,-222"/>
</g>
<g id="clust132" class="cluster">
<title>cluster_UsersModule_providers</title>
<polygon fill="none" stroke="#000000" points="696,-222 696,-274 836,-274 836,-222 696,-222"/>
</g>
<!-- AddonsService -->
<g id="node1" class="node">
<title>AddonsService</title>
<ellipse fill="#fdb462" stroke="#000000" cx="3935" cy="-104" rx="70.0654" ry="18"/>
<text text-anchor="middle" x="3935" y="-99.8" font-family="Times,serif" font-size="14.00" fill="#000000">AddonsService</text>
</g>
<!-- AddonsModule -->
<g id="node2" class="node">
<title>AddonsModule</title>
<polygon fill="#8dd3c7" stroke="#000000" points="3973.601,-198 3970.601,-202 3949.601,-202 3946.601,-198 3870.399,-198 3870.399,-162 3973.601,-162 3973.601,-198"/>
<text text-anchor="middle" x="3922" y="-175.8" font-family="Times,serif" font-size="14.00" fill="#000000">AddonsModule</text>
</g>
<!-- AddonsService&#45;&gt;AddonsModule -->
<g id="edge1" class="edge">
<title>AddonsService&#45;&gt;AddonsModule</title>
<path fill="none" stroke="#000000" d="M3922,-122.0109C3922,-122.0109 3922,-151.855 3922,-151.855"/>
<polygon fill="#000000" stroke="#000000" points="3918.5001,-151.8549 3922,-161.855 3925.5001,-151.855 3918.5001,-151.8549"/>
</g>
<!-- AppModule -->
<g id="node25" class="node">
<title>AppModule</title>
<polygon fill="#8dd3c7" stroke="#000000" points="2342.6571,-266 2339.6571,-270 2318.6571,-270 2315.6571,-266 2259.3429,-266 2259.3429,-230 2342.6571,-230 2342.6571,-266"/>
<text text-anchor="middle" x="2301" y="-243.8" font-family="Times,serif" font-size="14.00" fill="#000000">AppModule</text>
</g>
<!-- AddonsModule&#45;&gt;AppModule -->
<g id="edge4" class="edge">
<title>AddonsModule&#45;&gt;AppModule</title>
<path fill="none" stroke="#000000" d="M3922,-198.1532C3922,-221.7566 3922,-260 3922,-260 3922,-260 2352.6989,-260 2352.6989,-260"/>
<polygon fill="#000000" stroke="#000000" points="2352.6989,-256.5001 2342.6989,-260 2352.6988,-263.5001 2352.6989,-256.5001"/>
</g>
<!-- AdressesService  -->
<g id="node3" class="node">
<title>AdressesService </title>
<polygon fill="#fb8072" stroke="#000000" points="4166.0078,-266 4053.9922,-266 4053.9922,-230 4166.0078,-230 4166.0078,-266"/>
<text text-anchor="middle" x="4110" y="-243.8" font-family="Times,serif" font-size="14.00" fill="#000000">AdressesService </text>
</g>
<!-- AdressesModule -->
<g id="node4" class="node">
<title>AdressesModule</title>
<polygon fill="#8dd3c7" stroke="#000000" points="4165.08,-198 4162.08,-202 4141.08,-202 4138.08,-198 4054.92,-198 4054.92,-162 4165.08,-162 4165.08,-198"/>
<text text-anchor="middle" x="4110" y="-175.8" font-family="Times,serif" font-size="14.00" fill="#000000">AdressesModule</text>
</g>
<!-- AdressesModule&#45;&gt;AdressesService  -->
<g id="edge2" class="edge">
<title>AdressesModule&#45;&gt;AdressesService </title>
<path fill="none" stroke="#000000" stroke-dasharray="5,2" d="M4110,-198.2228C4110,-198.2228 4110,-219.7269 4110,-219.7269"/>
<polygon fill="#000000" stroke="#000000" points="4106.5001,-219.7269 4110,-229.7269 4113.5001,-219.727 4106.5001,-219.7269"/>
</g>
<!-- AdressesModule&#45;&gt;AppModule -->
<g id="edge5" class="edge">
<title>AdressesModule&#45;&gt;AppModule</title>
<path fill="none" stroke="#000000" d="M4054.9443,-180C4023.1087,-180 3989.2916,-180 3989.2916,-180 3989.2916,-180 3989.2916,-263 3989.2916,-263 3989.2916,-263 2352.7333,-263 2352.7333,-263"/>
<polygon fill="#000000" stroke="#000000" points="2352.7333,-259.5001 2342.7333,-263 2352.7332,-266.5001 2352.7333,-259.5001"/>
</g>
<!-- AdressesService -->
<g id="node5" class="node">
<title>AdressesService</title>
<ellipse fill="#fdb462" stroke="#000000" cx="4120" cy="-104" rx="74.6937" ry="18"/>
<text text-anchor="middle" x="4120" y="-99.8" font-family="Times,serif" font-size="14.00" fill="#000000">AdressesService</text>
</g>
<!-- AdressesService&#45;&gt;AdressesModule -->
<g id="edge3" class="edge">
<title>AdressesService&#45;&gt;AdressesModule</title>
<path fill="none" stroke="#000000" d="M4110,-122.0109C4110,-122.0109 4110,-151.855 4110,-151.855"/>
<polygon fill="#000000" stroke="#000000" points="4106.5001,-151.8549 4110,-161.855 4113.5001,-151.855 4106.5001,-151.8549"/>
</g>
<!-- CatalogsModule -->
<g id="node6" class="node">
<title>CatalogsModule</title>
<polygon fill="#8dd3c7" stroke="#000000" points="3398.0424,-198 3395.0424,-202 3374.0424,-202 3371.0424,-198 3289.9576,-198 3289.9576,-162 3398.0424,-162 3398.0424,-198"/>
<text text-anchor="middle" x="3344" y="-175.8" font-family="Times,serif" font-size="14.00" fill="#000000">CatalogsModule</text>
</g>
<!-- CatalogsModule&#45;&gt;AppModule -->
<g id="edge6" class="edge">
<title>CatalogsModule&#45;&gt;AppModule</title>
<path fill="none" stroke="#000000" d="M3344,-198.2479C3344,-221.0179 3344,-257 3344,-257 3344,-257 2352.854,-257 2352.854,-257"/>
<polygon fill="#000000" stroke="#000000" points="2352.854,-253.5001 2342.854,-257 2352.8539,-260.5001 2352.854,-253.5001"/>
</g>
<!-- CitiesModule -->
<g id="node7" class="node">
<title>CitiesModule</title>
<polygon fill="#8dd3c7" stroke="#000000" points="1456.2177,-198 1453.2177,-202 1432.2177,-202 1429.2177,-198 1363.7823,-198 1363.7823,-162 1456.2177,-162 1456.2177,-198"/>
<text text-anchor="middle" x="1410" y="-175.8" font-family="Times,serif" font-size="14.00" fill="#000000">CitiesModule</text>
</g>
<!-- CitiesModule&#45;&gt;AppModule -->
<g id="edge7" class="edge">
<title>CitiesModule&#45;&gt;AppModule</title>
<path fill="none" stroke="#000000" d="M1410,-198.2921C1410,-220.2057 1410,-254 1410,-254 1410,-254 2249.2203,-254 2249.2203,-254"/>
<polygon fill="#000000" stroke="#000000" points="2249.2203,-257.5001 2259.2203,-254 2249.2203,-250.5001 2249.2203,-257.5001"/>
</g>
<!-- CombosModule -->
<g id="node8" class="node">
<title>CombosModule</title>
<polygon fill="#8dd3c7" stroke="#000000" points="1580.2218,-198 1577.2218,-202 1556.2218,-202 1553.2218,-198 1473.7782,-198 1473.7782,-162 1580.2218,-162 1580.2218,-198"/>
<text text-anchor="middle" x="1527" y="-175.8" font-family="Times,serif" font-size="14.00" fill="#000000">CombosModule</text>
</g>
<!-- CombosModule&#45;&gt;AppModule -->
<g id="edge8" class="edge">
<title>CombosModule&#45;&gt;AppModule</title>
<path fill="none" stroke="#000000" d="M1527,-198.2843C1527,-219.3211 1527,-251 1527,-251 1527,-251 2249.112,-251 2249.112,-251"/>
<polygon fill="#000000" stroke="#000000" points="2249.112,-254.5001 2259.112,-251 2249.1119,-247.5001 2249.112,-254.5001"/>
</g>
<!-- ComplaintsModule -->
<g id="node9" class="node">
<title>ComplaintsModule</title>
<polygon fill="#8dd3c7" stroke="#000000" points="1722.108,-198 1719.108,-202 1698.108,-202 1695.108,-198 1597.892,-198 1597.892,-162 1722.108,-162 1722.108,-198"/>
<text text-anchor="middle" x="1660" y="-175.8" font-family="Times,serif" font-size="14.00" fill="#000000">ComplaintsModule</text>
</g>
<!-- ComplaintsModule&#45;&gt;AppModule -->
<g id="edge9" class="edge">
<title>ComplaintsModule&#45;&gt;AppModule</title>
<path fill="none" stroke="#000000" d="M1660,-198.2228C1660,-218.3652 1660,-248 1660,-248 1660,-248 2248.9422,-248 2248.9422,-248"/>
<polygon fill="#000000" stroke="#000000" points="2248.9422,-251.5001 2258.9422,-248 2248.9422,-244.5001 2248.9422,-251.5001"/>
</g>
<!-- CouponsModule -->
<g id="node10" class="node">
<title>CouponsModule</title>
<polygon fill="#8dd3c7" stroke="#000000" points="1849.8315,-198 1846.8315,-202 1825.8315,-202 1822.8315,-198 1740.1685,-198 1740.1685,-162 1849.8315,-162 1849.8315,-198"/>
<text text-anchor="middle" x="1795" y="-175.8" font-family="Times,serif" font-size="14.00" fill="#000000">CouponsModule</text>
</g>
<!-- CouponsModule&#45;&gt;AppModule -->
<g id="edge10" class="edge">
<title>CouponsModule&#45;&gt;AppModule</title>
<path fill="none" stroke="#000000" d="M1795,-198.1061C1795,-217.3391 1795,-245 1795,-245 1795,-245 2249.1614,-245 2249.1614,-245"/>
<polygon fill="#000000" stroke="#000000" points="2249.1614,-248.5001 2259.1614,-245 2249.1614,-241.5001 2249.1614,-248.5001"/>
</g>
<!-- FavoritesModule -->
<g id="node11" class="node">
<title>FavoritesModule</title>
<polygon fill="#8dd3c7" stroke="#000000" points="1978.6486,-198 1975.6486,-202 1954.6486,-202 1951.6486,-198 1867.3514,-198 1867.3514,-162 1978.6486,-162 1978.6486,-198"/>
<text text-anchor="middle" x="1923" y="-175.8" font-family="Times,serif" font-size="14.00" fill="#000000">FavoritesModule</text>
</g>
<!-- FavoritesModule&#45;&gt;AppModule -->
<g id="edge11" class="edge">
<title>FavoritesModule&#45;&gt;AppModule</title>
<path fill="none" stroke="#000000" d="M1923,-198.2667C1923,-216.5552 1923,-242 1923,-242 1923,-242 2249.1031,-242 2249.1031,-242"/>
<polygon fill="#000000" stroke="#000000" points="2249.1032,-245.5001 2259.1031,-242 2249.1031,-238.5001 2249.1032,-245.5001"/>
</g>
<!-- ImagesModule -->
<g id="node12" class="node">
<title>ImagesModule</title>
<polygon fill="#8dd3c7" stroke="#000000" points="1085.9748,-198 1082.9748,-202 1061.9748,-202 1058.9748,-198 986.0252,-198 986.0252,-162 1085.9748,-162 1085.9748,-198"/>
<text text-anchor="middle" x="1036" y="-175.8" font-family="Times,serif" font-size="14.00" fill="#000000">ImagesModule</text>
</g>
<!-- ImagesModule&#45;&gt;AppModule -->
<g id="edge12" class="edge">
<title>ImagesModule&#45;&gt;AppModule</title>
<path fill="none" stroke="#000000" d="M1036,-198.0098C1036,-222.4207 1036,-263 1036,-263 1036,-263 2249.2715,-263 2249.2715,-263"/>
<polygon fill="#000000" stroke="#000000" points="2249.2715,-266.5001 2259.2715,-263 2249.2715,-259.5001 2249.2715,-266.5001"/>
</g>
<!-- ImagesService  -->
<g id="node32" class="node">
<title>ImagesService </title>
<polygon fill="#fb8072" stroke="#000000" points="285.9026,-266 184.0974,-266 184.0974,-230 285.9026,-230 285.9026,-266"/>
<text text-anchor="middle" x="235" y="-243.8" font-family="Times,serif" font-size="14.00" fill="#000000">ImagesService </text>
</g>
<!-- ImagesModule&#45;&gt;ImagesService  -->
<g id="edge31" class="edge">
<title>ImagesModule&#45;&gt;ImagesService </title>
<path fill="none" stroke="#000000" stroke-dasharray="5,2" d="M985.8939,-186C810.5354,-186 235,-186 235,-186 235,-186 235,-219.7333 235,-219.7333"/>
<polygon fill="#000000" stroke="#000000" points="231.5001,-219.7333 235,-229.7333 238.5001,-219.7333 231.5001,-219.7333"/>
</g>
<!-- NotificationsModule -->
<g id="node13" class="node">
<title>NotificationsModule</title>
<polygon fill="#8dd3c7" stroke="#000000" points="1236.1443,-198 1233.1443,-202 1212.1443,-202 1209.1443,-198 1103.8557,-198 1103.8557,-162 1236.1443,-162 1236.1443,-198"/>
<text text-anchor="middle" x="1170" y="-175.8" font-family="Times,serif" font-size="14.00" fill="#000000">NotificationsModule</text>
</g>
<!-- NotificationsModule&#45;&gt;AppModule -->
<g id="edge13" class="edge">
<title>NotificationsModule&#45;&gt;AppModule</title>
<path fill="none" stroke="#000000" d="M1203.161,-198.1532C1203.161,-221.7566 1203.161,-260 1203.161,-260 1203.161,-260 2249.304,-260 2249.304,-260"/>
<polygon fill="#000000" stroke="#000000" points="2249.304,-263.5001 2259.304,-260 2249.304,-256.5001 2249.304,-263.5001"/>
</g>
<!-- NotificationsService  -->
<g id="node34" class="node">
<title>NotificationsService </title>
<polygon fill="#fb8072" stroke="#000000" points="664.0723,-266 529.9277,-266 529.9277,-230 664.0723,-230 664.0723,-266"/>
<text text-anchor="middle" x="597" y="-243.8" font-family="Times,serif" font-size="14.00" fill="#000000">NotificationsService </text>
</g>
<!-- NotificationsModule&#45;&gt;NotificationsService  -->
<g id="edge33" class="edge">
<title>NotificationsModule&#45;&gt;NotificationsService </title>
<path fill="none" stroke="#000000" stroke-dasharray="5,2" d="M1170,-198.1944C1170,-206.2782 1170,-214 1170,-214 1170,-214 597,-214 597,-214 597,-214 597,-219.8056 597,-219.8056"/>
<polygon fill="#000000" stroke="#000000" points="593.5001,-219.8055 597,-229.8056 600.5001,-219.8056 593.5001,-219.8055"/>
</g>
<!-- OrdersModule -->
<g id="node14" class="node">
<title>OrdersModule</title>
<polygon fill="#8dd3c7" stroke="#000000" points="2094.6375,-198 2091.6375,-202 2070.6375,-202 2067.6375,-198 1997.3625,-198 1997.3625,-162 2094.6375,-162 2094.6375,-198"/>
<text text-anchor="middle" x="2046" y="-175.8" font-family="Times,serif" font-size="14.00" fill="#000000">OrdersModule</text>
</g>
<!-- OrdersModule&#45;&gt;AppModule -->
<g id="edge14" class="edge">
<title>OrdersModule&#45;&gt;AppModule</title>
<path fill="none" stroke="#000000" d="M2046,-198.0225C2046,-215.3734 2046,-239 2046,-239 2046,-239 2249.1775,-239 2249.1775,-239"/>
<polygon fill="#000000" stroke="#000000" points="2249.1775,-242.5001 2259.1775,-239 2249.1774,-235.5001 2249.1775,-242.5001"/>
</g>
<!-- ProductsModule -->
<g id="node15" class="node">
<title>ProductsModule</title>
<polygon fill="#8dd3c7" stroke="#000000" points="2221.0438,-198 2218.0438,-202 2197.0438,-202 2194.0438,-198 2112.9562,-198 2112.9562,-162 2221.0438,-162 2221.0438,-198"/>
<text text-anchor="middle" x="2167" y="-175.8" font-family="Times,serif" font-size="14.00" fill="#000000">ProductsModule</text>
</g>
<!-- ProductsModule&#45;&gt;AppModule -->
<g id="edge15" class="edge">
<title>ProductsModule&#45;&gt;AppModule</title>
<path fill="none" stroke="#000000" d="M2167,-198.027C2167,-214.3976 2167,-236 2167,-236 2167,-236 2249.3361,-236 2249.3361,-236"/>
<polygon fill="#000000" stroke="#000000" points="2249.3361,-239.5001 2259.3361,-236 2249.3361,-232.5001 2249.3361,-239.5001"/>
</g>
<!-- PushtokensModule -->
<g id="node16" class="node">
<title>PushtokensModule</title>
<polygon fill="#8dd3c7" stroke="#000000" points="2362.8272,-198 2359.8272,-202 2338.8272,-202 2335.8272,-198 2239.1728,-198 2239.1728,-162 2362.8272,-162 2362.8272,-198"/>
<text text-anchor="middle" x="2301" y="-175.8" font-family="Times,serif" font-size="14.00" fill="#000000">PushtokensModule</text>
</g>
<!-- PushtokensModule&#45;&gt;AppModule -->
<g id="edge16" class="edge">
<title>PushtokensModule&#45;&gt;AppModule</title>
<path fill="none" stroke="#000000" d="M2301,-198.2228C2301,-198.2228 2301,-219.7269 2301,-219.7269"/>
<polygon fill="#000000" stroke="#000000" points="2297.5001,-219.7269 2301,-229.7269 2304.5001,-219.727 2297.5001,-219.7269"/>
</g>
<!-- RatingsModule -->
<g id="node17" class="node">
<title>RatingsModule</title>
<polygon fill="#8dd3c7" stroke="#000000" points="2483.3273,-198 2480.3273,-202 2459.3273,-202 2456.3273,-198 2380.6727,-198 2380.6727,-162 2483.3273,-162 2483.3273,-198"/>
<text text-anchor="middle" x="2432" y="-175.8" font-family="Times,serif" font-size="14.00" fill="#000000">RatingsModule</text>
</g>
<!-- RatingsModule&#45;&gt;AppModule -->
<g id="edge17" class="edge">
<title>RatingsModule&#45;&gt;AppModule</title>
<path fill="none" stroke="#000000" d="M2432,-198.2819C2432,-213.9478 2432,-234 2432,-234 2432,-234 2352.8094,-234 2352.8094,-234"/>
<polygon fill="#000000" stroke="#000000" points="2352.8094,-230.5001 2342.8094,-234 2352.8094,-237.5001 2352.8094,-230.5001"/>
</g>
<!-- SectionsModule -->
<g id="node18" class="node">
<title>SectionsModule</title>
<polygon fill="#8dd3c7" stroke="#000000" points="2608.4874,-198 2605.4874,-202 2584.4874,-202 2581.4874,-198 2501.5126,-198 2501.5126,-162 2608.4874,-162 2608.4874,-198"/>
<text text-anchor="middle" x="2555" y="-175.8" font-family="Times,serif" font-size="14.00" fill="#000000">SectionsModule</text>
</g>
<!-- SectionsModule&#45;&gt;AppModule -->
<g id="edge18" class="edge">
<title>SectionsModule&#45;&gt;AppModule</title>
<path fill="none" stroke="#000000" d="M2555,-198.0352C2555,-214.7344 2555,-237 2555,-237 2555,-237 2352.6585,-237 2352.6585,-237"/>
<polygon fill="#000000" stroke="#000000" points="2352.6585,-233.5001 2342.6585,-237 2352.6585,-240.5001 2352.6585,-233.5001"/>
</g>
<!-- SettingsModule -->
<g id="node19" class="node">
<title>SettingsModule</title>
<polygon fill="#8dd3c7" stroke="#000000" points="2731.1639,-198 2728.1639,-202 2707.1639,-202 2704.1639,-198 2626.8361,-198 2626.8361,-162 2731.1639,-162 2731.1639,-198"/>
<text text-anchor="middle" x="2679" y="-175.8" font-family="Times,serif" font-size="14.00" fill="#000000">SettingsModule</text>
</g>
<!-- SettingsModule&#45;&gt;AppModule -->
<g id="edge19" class="edge">
<title>SettingsModule&#45;&gt;AppModule</title>
<path fill="none" stroke="#000000" d="M2679,-198.002C2679,-215.6754 2679,-240 2679,-240 2679,-240 2352.8969,-240 2352.8969,-240"/>
<polygon fill="#000000" stroke="#000000" points="2352.8969,-236.5001 2342.8969,-240 2352.8968,-243.5001 2352.8969,-236.5001"/>
</g>
<!-- SpecialtiesModule -->
<g id="node20" class="node">
<title>SpecialtiesModule</title>
<polygon fill="#8dd3c7" stroke="#000000" points="2869.198,-198 2866.198,-202 2845.198,-202 2842.198,-198 2748.802,-198 2748.802,-162 2869.198,-162 2869.198,-198"/>
<text text-anchor="middle" x="2809" y="-175.8" font-family="Times,serif" font-size="14.00" fill="#000000">SpecialtiesModule</text>
</g>
<!-- SpecialtiesModule&#45;&gt;AppModule -->
<g id="edge20" class="edge">
<title>SpecialtiesModule&#45;&gt;AppModule</title>
<path fill="none" stroke="#000000" d="M2809,-198.1686C2809,-217.0898 2809,-244 2809,-244 2809,-244 2353.004,-244 2353.004,-244"/>
<polygon fill="#000000" stroke="#000000" points="2353.004,-240.5001 2343.004,-244 2353.0039,-247.5001 2353.004,-240.5001"/>
</g>
<!-- StoresModule -->
<g id="node21" class="node">
<title>StoresModule</title>
<polygon fill="#8dd3c7" stroke="#000000" points="2981.0439,-198 2978.0439,-202 2957.0439,-202 2954.0439,-198 2886.9561,-198 2886.9561,-162 2981.0439,-162 2981.0439,-198"/>
<text text-anchor="middle" x="2934" y="-175.8" font-family="Times,serif" font-size="14.00" fill="#000000">StoresModule</text>
</g>
<!-- StoresModule&#45;&gt;AppModule -->
<g id="edge21" class="edge">
<title>StoresModule&#45;&gt;AppModule</title>
<path fill="none" stroke="#000000" d="M2934,-198.308C2934,-218.1455 2934,-247 2934,-247 2934,-247 2353.0231,-247 2353.0231,-247"/>
<polygon fill="#000000" stroke="#000000" points="2353.0232,-243.5001 2343.0231,-247 2353.0231,-250.5001 2353.0232,-243.5001"/>
</g>
<!-- StoretypesModule -->
<g id="node22" class="node">
<title>StoretypesModule</title>
<polygon fill="#8dd3c7" stroke="#000000" points="3118.1485,-198 3115.1485,-202 3094.1485,-202 3091.1485,-198 2999.8515,-198 2999.8515,-162 3118.1485,-162 3118.1485,-198"/>
<text text-anchor="middle" x="3059" y="-175.8" font-family="Times,serif" font-size="14.00" fill="#000000">StoretypesModule</text>
</g>
<!-- StoretypesModule&#45;&gt;AppModule -->
<g id="edge22" class="edge">
<title>StoretypesModule&#45;&gt;AppModule</title>
<path fill="none" stroke="#000000" d="M3059,-198.0267C3059,-218.7672 3059,-250 3059,-250 3059,-250 2352.8331,-250 2352.8331,-250"/>
<polygon fill="#000000" stroke="#000000" points="2352.8331,-246.5001 2342.8331,-250 2352.833,-253.5001 2352.8331,-246.5001"/>
</g>
<!-- UsedcouponsModule -->
<g id="node23" class="node">
<title>UsedcouponsModule</title>
<polygon fill="#8dd3c7" stroke="#000000" points="3271.4748,-198 3268.4748,-202 3247.4748,-202 3244.4748,-198 3136.5252,-198 3136.5252,-162 3271.4748,-162 3271.4748,-198"/>
<text text-anchor="middle" x="3204" y="-175.8" font-family="Times,serif" font-size="14.00" fill="#000000">UsedcouponsModule</text>
</g>
<!-- UsedcouponsModule&#45;&gt;AppModule -->
<g id="edge23" class="edge">
<title>UsedcouponsModule&#45;&gt;AppModule</title>
<path fill="none" stroke="#000000" d="M3204,-198.0449C3204,-219.6623 3204,-253 3204,-253 3204,-253 2352.7425,-253 2352.7425,-253"/>
<polygon fill="#000000" stroke="#000000" points="2352.7426,-249.5001 2342.7425,-253 2352.7425,-256.5001 2352.7426,-249.5001"/>
</g>
<!-- UsersModule -->
<g id="node24" class="node">
<title>UsersModule</title>
<polygon fill="#8dd3c7" stroke="#000000" points="1345.9218,-198 1342.9218,-202 1321.9218,-202 1318.9218,-198 1254.0782,-198 1254.0782,-162 1345.9218,-162 1345.9218,-198"/>
<text text-anchor="middle" x="1300" y="-175.8" font-family="Times,serif" font-size="14.00" fill="#000000">UsersModule</text>
</g>
<!-- UsersModule&#45;&gt;AppModule -->
<g id="edge24" class="edge">
<title>UsersModule&#45;&gt;AppModule</title>
<path fill="none" stroke="#000000" d="M1322.8552,-198.2479C1322.8552,-221.0179 1322.8552,-257 1322.8552,-257 1322.8552,-257 2249.2832,-257 2249.2832,-257"/>
<polygon fill="#000000" stroke="#000000" points="2249.2833,-260.5001 2259.2832,-257 2249.2832,-253.5001 2249.2833,-260.5001"/>
</g>
<!-- UsersService  -->
<g id="node46" class="node">
<title>UsersService </title>
<polygon fill="#fb8072" stroke="#000000" points="945.8493,-266 852.1507,-266 852.1507,-230 945.8493,-230 945.8493,-266"/>
<text text-anchor="middle" x="899" y="-243.8" font-family="Times,serif" font-size="14.00" fill="#000000">UsersService </text>
</g>
<!-- UsersModule&#45;&gt;UsersService  -->
<g id="edge45" class="edge">
<title>UsersModule&#45;&gt;UsersService </title>
<path fill="none" stroke="#000000" stroke-dasharray="5,2" d="M1300,-198.2396C1300,-213.5706 1300,-233 1300,-233 1300,-233 955.7846,-233 955.7846,-233"/>
<polygon fill="#000000" stroke="#000000" points="955.7846,-229.5001 945.7846,-233 955.7846,-236.5001 955.7846,-229.5001"/>
</g>
<!-- CatalogsService -->
<g id="node26" class="node">
<title>CatalogsService</title>
<ellipse fill="#fdb462" stroke="#000000" cx="3751" cy="-104" rx="73.5714" ry="18"/>
<text text-anchor="middle" x="3751" y="-99.8" font-family="Times,serif" font-size="14.00" fill="#000000">CatalogsService</text>
</g>
<!-- CatalogsService&#45;&gt;CatalogsModule -->
<g id="edge25" class="edge">
<title>CatalogsService&#45;&gt;CatalogsModule</title>
<path fill="none" stroke="#000000" d="M3751,-122.0109C3751,-144.4852 3751,-180 3751,-180 3751,-180 3408.0465,-180 3408.0465,-180"/>
<polygon fill="#000000" stroke="#000000" points="3408.0465,-176.5001 3398.0465,-180 3408.0464,-183.5001 3408.0465,-176.5001"/>
</g>
<!-- CitiesService -->
<g id="node27" class="node">
<title>CitiesService</title>
<ellipse fill="#fdb462" stroke="#000000" cx="888" cy="-104" rx="62.5508" ry="18"/>
<text text-anchor="middle" x="888" y="-99.8" font-family="Times,serif" font-size="14.00" fill="#000000">CitiesService</text>
</g>
<!-- CitiesService&#45;&gt;CitiesModule -->
<g id="edge26" class="edge">
<title>CitiesService&#45;&gt;CitiesModule</title>
<path fill="none" stroke="#000000" d="M899,-122.0555C899,-133.439 899,-146 899,-146 899,-146 1374.2806,-146 1374.2806,-146 1374.2806,-146 1374.2806,-151.8056 1374.2806,-151.8056"/>
<polygon fill="#000000" stroke="#000000" points="1370.7807,-151.8055 1374.2806,-161.8056 1377.7807,-151.8056 1370.7807,-151.8055"/>
</g>
<!-- CombosService -->
<g id="node28" class="node">
<title>CombosService</title>
<ellipse fill="#fdb462" stroke="#000000" cx="1063" cy="-104" rx="72.371" ry="18"/>
<text text-anchor="middle" x="1063" y="-99.8" font-family="Times,serif" font-size="14.00" fill="#000000">CombosService</text>
</g>
<!-- CombosService&#45;&gt;CombosModule -->
<g id="edge27" class="edge">
<title>CombosService&#45;&gt;CombosModule</title>
<path fill="none" stroke="#000000" d="M1119.4317,-115.6077C1119.4317,-126.7828 1119.4317,-142 1119.4317,-142 1119.4317,-142 1493.7028,-142 1493.7028,-142 1493.7028,-142 1493.7028,-151.8903 1493.7028,-151.8903"/>
<polygon fill="#000000" stroke="#000000" points="1490.2029,-151.8903 1493.7028,-161.8903 1497.2029,-151.8904 1490.2029,-151.8903"/>
</g>
<!-- ComplaintsService -->
<g id="node29" class="node">
<title>ComplaintsService</title>
<ellipse fill="#fdb462" stroke="#000000" cx="1260" cy="-104" rx="84.5459" ry="18"/>
<text text-anchor="middle" x="1260" y="-99.8" font-family="Times,serif" font-size="14.00" fill="#000000">ComplaintsService</text>
</g>
<!-- ComplaintsService&#45;&gt;ComplaintsModule -->
<g id="edge28" class="edge">
<title>ComplaintsService&#45;&gt;ComplaintsModule</title>
<path fill="none" stroke="#000000" d="M1299.4063,-120.2034C1299.4063,-128.9604 1299.4063,-138 1299.4063,-138 1299.4063,-138 1639.3153,-138 1639.3153,-138 1639.3153,-138 1639.3153,-151.9445 1639.3153,-151.9445"/>
<polygon fill="#000000" stroke="#000000" points="1635.8154,-151.9444 1639.3153,-161.9445 1642.8154,-151.9445 1635.8154,-151.9444"/>
</g>
<!-- CouponsService -->
<g id="node30" class="node">
<title>CouponsService</title>
<ellipse fill="#fdb462" stroke="#000000" cx="1459" cy="-104" rx="74.1605" ry="18"/>
<text text-anchor="middle" x="1459" y="-99.8" font-family="Times,serif" font-size="14.00" fill="#000000">CouponsService</text>
</g>
<!-- CouponsService&#45;&gt;CouponsModule -->
<g id="edge29" class="edge">
<title>CouponsService&#45;&gt;CouponsModule</title>
<path fill="none" stroke="#000000" d="M1513.5164,-116.5489C1513.5164,-124.7697 1513.5164,-134 1513.5164,-134 1513.5164,-134 1752.5354,-134 1752.5354,-134 1752.5354,-134 1752.5354,-151.8196 1752.5354,-151.8196"/>
<polygon fill="#000000" stroke="#000000" points="1749.0355,-151.8195 1752.5354,-161.8196 1756.0355,-151.8196 1749.0355,-151.8195"/>
</g>
<!-- FavoritesService -->
<g id="node31" class="node">
<title>FavoritesService</title>
<ellipse fill="#fdb462" stroke="#000000" cx="1649" cy="-104" rx="75.8566" ry="18"/>
<text text-anchor="middle" x="1649" y="-99.8" font-family="Times,serif" font-size="14.00" fill="#000000">FavoritesService</text>
</g>
<!-- FavoritesService&#45;&gt;FavoritesModule -->
<g id="edge30" class="edge">
<title>FavoritesService&#45;&gt;FavoritesModule</title>
<path fill="none" stroke="#000000" d="M1680.6847,-120.6134C1680.6847,-125.709 1680.6847,-130 1680.6847,-130 1680.6847,-130 1877.2052,-130 1877.2052,-130 1877.2052,-130 1877.2052,-151.9489 1877.2052,-151.9489"/>
<polygon fill="#000000" stroke="#000000" points="1873.7053,-151.9488 1877.2052,-161.9489 1880.7053,-151.9489 1873.7053,-151.9488"/>
</g>
<!-- ImagesService -->
<g id="node33" class="node">
<title>ImagesService</title>
<ellipse fill="#fdb462" stroke="#000000" cx="92" cy="-248" rx="67.7529" ry="18"/>
<text text-anchor="middle" x="92" y="-243.8" font-family="Times,serif" font-size="14.00" fill="#000000">ImagesService</text>
</g>
<!-- ImagesService&#45;&gt;ImagesModule -->
<g id="edge32" class="edge">
<title>ImagesService&#45;&gt;ImagesModule</title>
<path fill="none" stroke="#000000" d="M92,-229.7079C92,-207.7943 92,-174 92,-174 92,-174 975.913,-174 975.913,-174"/>
<polygon fill="#000000" stroke="#000000" points="975.913,-177.5001 985.913,-174 975.9129,-170.5001 975.913,-177.5001"/>
</g>
<!-- NotificationsService -->
<g id="node35" class="node">
<title>NotificationsService</title>
<ellipse fill="#fdb462" stroke="#000000" cx="416" cy="-248" rx="90.3217" ry="18"/>
<text text-anchor="middle" x="416" y="-243.8" font-family="Times,serif" font-size="14.00" fill="#000000">NotificationsService</text>
</g>
<!-- NotificationsService&#45;&gt;NotificationsModule -->
<g id="edge34" class="edge">
<title>NotificationsService&#45;&gt;NotificationsModule</title>
<path fill="none" stroke="#000000" d="M416,-229.9445C416,-218.561 416,-206 416,-206 416,-206 1136.8391,-206 1136.8391,-206 1136.8391,-206 1136.8391,-205.2058 1136.8391,-205.2058"/>
<polygon fill="#000000" stroke="#000000" points="1140.3392,-208.0578 1136.8391,-198.0579 1133.3392,-208.0579 1140.3392,-208.0578"/>
</g>
<!-- OrdersService -->
<g id="node36" class="node">
<title>OrdersService</title>
<ellipse fill="#fdb462" stroke="#000000" cx="1831" cy="-104" rx="66.0281" ry="18"/>
<text text-anchor="middle" x="1831" y="-99.8" font-family="Times,serif" font-size="14.00" fill="#000000">OrdersService</text>
</g>
<!-- OrdersService&#45;&gt;OrdersModule -->
<g id="edge35" class="edge">
<title>OrdersService&#45;&gt;OrdersModule</title>
<path fill="none" stroke="#000000" d="M1887.2344,-113.7136C1887.2344,-119.6071 1887.2344,-126 1887.2344,-126 1887.2344,-126 2040.984,-126 2040.984,-126 2040.984,-126 2040.984,-151.7181 2040.984,-151.7181"/>
<polygon fill="#000000" stroke="#000000" points="2037.4841,-151.718 2040.984,-161.7181 2044.4841,-151.7181 2037.4841,-151.718"/>
</g>
<!-- ProductsService -->
<g id="node37" class="node">
<title>ProductsService</title>
<ellipse fill="#fdb462" stroke="#000000" cx="2011" cy="-104" rx="73.5734" ry="18"/>
<text text-anchor="middle" x="2011" y="-99.8" font-family="Times,serif" font-size="14.00" fill="#000000">ProductsService</text>
</g>
<!-- ProductsService&#45;&gt;ProductsModule -->
<g id="edge36" class="edge">
<title>ProductsService&#45;&gt;ProductsModule</title>
<path fill="none" stroke="#000000" d="M2085.0368,-104C2103.8603,-104 2118.8722,-104 2118.8722,-104 2118.8722,-104 2118.8722,-151.9891 2118.8722,-151.9891"/>
<polygon fill="#000000" stroke="#000000" points="2115.3723,-151.989 2118.8722,-161.9891 2122.3723,-151.9891 2115.3723,-151.989"/>
</g>
<!-- PushtokensService -->
<g id="node38" class="node">
<title>PushtokensService</title>
<ellipse fill="#fdb462" stroke="#000000" cx="2209" cy="-104" rx="83.9682" ry="18"/>
<text text-anchor="middle" x="2209" y="-99.8" font-family="Times,serif" font-size="14.00" fill="#000000">PushtokensService</text>
</g>
<!-- PushtokensService&#45;&gt;PushtokensModule -->
<g id="edge37" class="edge">
<title>PushtokensService&#45;&gt;PushtokensModule</title>
<path fill="none" stroke="#000000" d="M2266.1604,-117.2382C2266.1604,-117.2382 2266.1604,-151.7901 2266.1604,-151.7901"/>
<polygon fill="#000000" stroke="#000000" points="2262.6605,-151.79 2266.1604,-161.7901 2269.6605,-151.7901 2262.6605,-151.79"/>
</g>
<!-- RatingsService -->
<g id="node39" class="node">
<title>RatingsService</title>
<ellipse fill="#fdb462" stroke="#000000" cx="2402" cy="-104" rx="69.4974" ry="18"/>
<text text-anchor="middle" x="2402" y="-99.8" font-family="Times,serif" font-size="14.00" fill="#000000">RatingsService</text>
</g>
<!-- RatingsService&#45;&gt;RatingsModule -->
<g id="edge38" class="edge">
<title>RatingsService&#45;&gt;RatingsModule</title>
<path fill="none" stroke="#000000" d="M2426.1676,-121.2456C2426.1676,-121.2456 2426.1676,-151.7629 2426.1676,-151.7629"/>
<polygon fill="#000000" stroke="#000000" points="2422.6677,-151.7628 2426.1676,-161.7629 2429.6677,-151.7629 2422.6677,-151.7628"/>
</g>
<!-- SectionsService -->
<g id="node40" class="node">
<title>SectionsService</title>
<ellipse fill="#fdb462" stroke="#000000" cx="2584" cy="-104" rx="72.9276" ry="18"/>
<text text-anchor="middle" x="2584" y="-99.8" font-family="Times,serif" font-size="14.00" fill="#000000">SectionsService</text>
</g>
<!-- SectionsService&#45;&gt;SectionsModule -->
<g id="edge39" class="edge">
<title>SectionsService&#45;&gt;SectionsModule</title>
<path fill="none" stroke="#000000" d="M2559.8901,-121.2456C2559.8901,-121.2456 2559.8901,-151.7629 2559.8901,-151.7629"/>
<polygon fill="#000000" stroke="#000000" points="2556.3902,-151.7628 2559.8901,-161.7629 2563.3902,-151.7629 2556.3902,-151.7628"/>
</g>
<!-- SettingsService -->
<g id="node41" class="node">
<title>SettingsService</title>
<ellipse fill="#fdb462" stroke="#000000" cx="2768" cy="-104" rx="71.221" ry="18"/>
<text text-anchor="middle" x="2768" y="-99.8" font-family="Times,serif" font-size="14.00" fill="#000000">SettingsService</text>
</g>
<!-- SettingsService&#45;&gt;SettingsModule -->
<g id="edge40" class="edge">
<title>SettingsService&#45;&gt;SettingsModule</title>
<path fill="none" stroke="#000000" d="M2714.1106,-115.875C2714.1106,-115.875 2714.1106,-151.9891 2714.1106,-151.9891"/>
<polygon fill="#000000" stroke="#000000" points="2710.6107,-151.989 2714.1106,-161.9891 2717.6107,-151.9891 2710.6107,-151.989"/>
</g>
<!-- SpecialtiesService -->
<g id="node42" class="node">
<title>SpecialtiesService</title>
<ellipse fill="#fdb462" stroke="#000000" cx="2961" cy="-104" rx="81.6519" ry="18"/>
<text text-anchor="middle" x="2961" y="-99.8" font-family="Times,serif" font-size="14.00" fill="#000000">SpecialtiesService</text>
</g>
<!-- SpecialtiesService&#45;&gt;SpecialtiesModule -->
<g id="edge41" class="edge">
<title>SpecialtiesService&#45;&gt;SpecialtiesModule</title>
<path fill="none" stroke="#000000" d="M2882.9514,-109.4657C2882.9514,-126.8918 2882.9514,-180 2882.9514,-180 2882.9514,-180 2879.3876,-180 2879.3876,-180"/>
<polygon fill="#000000" stroke="#000000" points="2879.3876,-176.5001 2869.3876,-180 2879.3875,-183.5001 2879.3876,-176.5001"/>
</g>
<!-- StoresService -->
<g id="node43" class="node">
<title>StoresService</title>
<ellipse fill="#fdb462" stroke="#000000" cx="3147" cy="-104" rx="64.2591" ry="18"/>
<text text-anchor="middle" x="3147" y="-99.8" font-family="Times,serif" font-size="14.00" fill="#000000">StoresService</text>
</g>
<!-- StoresService&#45;&gt;StoresModule -->
<g id="edge42" class="edge">
<title>StoresService&#45;&gt;StoresModule</title>
<path fill="none" stroke="#000000" d="M3094.6884,-114.6689C3094.6884,-128.2578 3094.6884,-150 3094.6884,-150 3094.6884,-150 2934,-150 2934,-150 2934,-150 2934,-151.8568 2934,-151.8568"/>
<polygon fill="#000000" stroke="#000000" points="2930.5001,-151.8568 2934,-161.8568 2937.5001,-151.8568 2930.5001,-151.8568"/>
</g>
<!-- StoretypesService -->
<g id="node44" class="node">
<title>StoretypesService</title>
<ellipse fill="#fdb462" stroke="#000000" cx="3332" cy="-104" rx="80.5142" ry="18"/>
<text text-anchor="middle" x="3332" y="-99.8" font-family="Times,serif" font-size="14.00" fill="#000000">StoretypesService</text>
</g>
<!-- StoretypesService&#45;&gt;StoretypesModule -->
<g id="edge43" class="edge">
<title>StoretypesService&#45;&gt;StoretypesModule</title>
<path fill="none" stroke="#000000" d="M3257.9913,-111.3777C3257.9913,-125.286 3257.9913,-154 3257.9913,-154 3257.9913,-154 3106.5062,-154 3106.5062,-154 3106.5062,-154 3106.5062,-154.7942 3106.5062,-154.7942"/>
<polygon fill="#000000" stroke="#000000" points="3103.0063,-151.9421 3106.5062,-161.9421 3110.0063,-151.9422 3103.0063,-151.9421"/>
</g>
<!-- UsedcouponsService -->
<g id="node45" class="node">
<title>UsedcouponsService</title>
<ellipse fill="#fdb462" stroke="#000000" cx="3545" cy="-104" rx="92.0374" ry="18"/>
<text text-anchor="middle" x="3545" y="-99.8" font-family="Times,serif" font-size="14.00" fill="#000000">UsedcouponsService</text>
</g>
<!-- UsedcouponsService&#45;&gt;UsedcouponsModule -->
<g id="edge44" class="edge">
<title>UsedcouponsService&#45;&gt;UsedcouponsModule</title>
<path fill="none" stroke="#000000" d="M3545,-122.2819C3545,-137.9478 3545,-158 3545,-158 3545,-158 3264.7393,-158 3264.7393,-158 3264.7393,-158 3264.7393,-158.3832 3264.7393,-158.3832"/>
<polygon fill="#000000" stroke="#000000" points="3261.2396,-151.832 3264.7393,-161.8321 3268.2396,-151.8322 3261.2396,-151.832"/>
</g>
<!-- UsersService -->
<g id="node47" class="node">
<title>UsersService</title>
<ellipse fill="#fdb462" stroke="#000000" cx="766" cy="-248" rx="61.9519" ry="18"/>
<text text-anchor="middle" x="766" y="-243.8" font-family="Times,serif" font-size="14.00" fill="#000000">UsersService</text>
</g>
<!-- UsersService&#45;&gt;UsersModule -->
<g id="edge46" class="edge">
<title>UsersService&#45;&gt;UsersModule</title>
<path fill="none" stroke="#000000" d="M764.7493,-229.9421C764.7493,-225.5055 764.7493,-222 764.7493,-222 764.7493,-222 1277.1448,-222 1277.1448,-222 1277.1448,-222 1277.1448,-208.0555 1277.1448,-208.0555"/>
<polygon fill="#000000" stroke="#000000" points="1280.6449,-208.0555 1277.1448,-198.0555 1273.6449,-208.0556 1280.6449,-208.0555"/>
</g>
</g>
</svg>
